# xmcd
#
# Track frame offsets:
#	150
#	21948
#	42348
#	61047
#	76947
#	94912
#	114414
#	130131
#	140988
#	164512
#	183856
#	202065
#
# Disc length: 2967 seconds
#
# Revision: 1
# Processed by: cddbd v1.4PL0 Copyright (c) Steve Scherf et al.
# Submitted via: audiograbber 1.82.02
#
DISCID=a60b950c
DTITLE=Los Finos - Grandes Exitos
DYEAR=1999
DGENRE=Rock
TTITLE0=Los Bares
TTITLE1=La Calle de las Flores
TTITLE2=El Huerfanito
TTITLE3=7 Puñaladas
TTITLE4=Sueño con tus besos
TTITLE5=El Viaje
TTITLE6=Franciso (Vuelve y paga la cuenta del bar..)
TTITLE7=Felichita
TTITLE8=Vamonos
TTITLE9=Maripili (Vilma, abreme la puerta..)
TTITLE10=Garibolos
TTITLE11=Tus Besos (Bonus Track)
EXTD=http://www.librarecords.org
EXTT0=
EXTT1=
EXTT2=
EXTT3=
EXTT4=
EXTT5=
EXTT6=
EXTT7=
EXTT8=
EXTT9=
EXTT10=
EXTT11=
PLAYORDER=
